<?xml version="1.0" encoding="UTF-8" standalone="no"?>
<!-- Uploaded to: SVG Repo, www.svgrepo.com, Generator: SVG Repo Mixer Tools -->

<svg
   width="800px"
   height="800px"
   viewBox="0 0 32 32"
   fill="none"
   version="1.1"
   id="svg283"
   sodipodi:docname="git.svg"
   inkscape:version="1.2.2 (732a01da63, 2022-12-09)"
   xmlns:inkscape="http://www.inkscape.org/namespaces/inkscape"
   xmlns:sodipodi="http://sodipodi.sourceforge.net/DTD/sodipodi-0.dtd"
   xmlns="http://www.w3.org/2000/svg"
   xmlns:svg="http://www.w3.org/2000/svg">
  <defs
     id="defs287" />
  <sodipodi:namedview
     id="namedview285"
     pagecolor="#ffffff"
     bordercolor="#000000"
     borderopacity="0.25"
     inkscape:showpageshadow="2"
     inkscape:pageopacity="0.0"
     inkscape:pagecheckerboard="0"
     inkscape:deskcolor="#d1d1d1"
     showgrid="false"
     inkscape:zoom="0.523125"
     inkscape:cx="292.47312"
     inkscape:cy="436.79809"
     inkscape:window-width="1350"
     inkscape:window-height="1040"
     inkscape:window-x="33"
     inkscape:window-y="108"
     inkscape:window-maximized="0"
     inkscape:current-layer="svg283" />
  <path
     d="m 0.82696384,17.598445 c -0.88278572,-0.882809 -0.88278572,-2.314078 0,-3.196886 L 14.401559,0.82696384 c 0.882808,-0.88278572 2.314077,-0.88278572 3.196886,0 L 31.172994,14.401559 c 0.882809,0.882808 0.882809,2.314077 0,3.196886 L 17.598445,31.172994 c -0.882809,0.882809 -2.314078,0.882809 -3.196886,0 z"
     fill="#ee513b"
     id="path279"
     style="stroke-width:1.13108" />
  <path
     d="m 11.644098,3.6277001 -1.374603,1.3746474 3.550349,3.5503599 c -0.143647,0.308129 -0.223841,0.6517739 -0.223841,1.0141608 0,1.0288308 0.646413,1.9066628 1.555236,2.2494928 v 8.685115 c -0.908823,0.34283 -1.555236,1.220662 -1.555236,2.249493 0,1.327436 1.07611,2.403546 2.403546,2.403546 1.327436,0 2.403546,-1.07611 2.403546,-2.403546 0,-0.932689 -0.531268,-1.741412 -1.307755,-2.139778 v -8.782954 l 3.393807,3.393807 c -0.136634,0.301886 -0.212643,0.637025 -0.212643,0.989922 0,1.327436 1.07611,2.403546 2.403546,2.403546 1.327436,0 2.403546,-1.07611 2.403546,-2.403546 0,-1.327436 -1.07611,-2.403546 -2.403546,-2.403546 -0.257999,0 -0.506385,0.04061 -0.739387,0.115823 l -3.644907,-3.644907 c 0.06979,-0.225085 0.107339,-0.4644219 0.107339,-0.7124678 0,-1.3274588 -1.07611,-2.4035687 -2.403546,-2.4035687 -0.248046,0 -0.487269,0.037586 -0.712467,0.1073621 z"
     fill="#ffffff"
     id="path281"
     style="stroke-width:1.13108" />
</svg>
